<svg height="69" viewBox="0 0 341 69" width="341" xmlns="http://www.w3.org/2000/svg"><g fill="none" fill-rule="evenodd"><path d="m7.449 44.449c0-3.664.617-7 1.852-10 1.23-3 2.816-5.75 4.75-8.25 1.898-2.5 3.863-4.847 5.898-7.051 2.035-2.164 3.852-4.281 5.449-6.347 1.567-2.067 2.633-4.133 3.2-6.199.566-2.102.336-4.301-.7-6.602l-19.949 19.898c-2.234 2.336-4.015 4.985-5.351 7.954-1.731 3.765-2.598 7.664-2.598 11.699.066 5.301 1.367 10.082 3.898 14.347 2.5 4.301 5.903 7.719 10.2 10.25 4.269 2.536 9.05 3.836 14.351 3.903 1.367-.035 2.715-.153 4.051-.352-4.301-.5-8.016-1.582-11.152-3.25-3.133-1.664-5.731-3.648-7.797-5.949-2.035-2.332-3.551-4.734-4.551-7.199-1-2.469-1.516-4.75-1.551-6.852" fill="#3c3c3c"/><path d="m54.301 27.898c-1.367-2.964-3.153-5.613-5.352-7.949l-17.551-17.551c.934 2.137 1.219 4.301.852 6.5-.367 2.168-1.152 4.368-2.352 6.602-1.164 2.199-2.515 4.398-4.05 6.602-1.532 2.199-3 4.398-4.399 6.597-1.398 2.199-2.5 4.367-3.301 6.5-.933 2.699-1.316 5.25-1.148 7.653.199 2.398.734 4.566 1.598 6.5.867 1.933 1.918 3.515 3.152 4.75 1.199 1.265 2.383 2.082 3.551 2.449-.602-.367-1.27-1.352-2-2.949-.77-1.602-1.367-3.602-1.801-6-.469-2.368-.516-4.918-.152-7.653.336-2.699 1.316-5.316 2.953-7.847 1.597-2.536 4.082-4.77 7.449-6.704-1.668 1.536-2.883 3.602-3.652 6.204-.766 2.597-1.082 5.48-.95 8.648.102 3.199.668 6.398 1.7 9.602 1.035 3.199 2.519 6.148 4.453 8.847 1.965 2.699 4.383 4.903 7.25 6.602 3.23-1.535 6.066-3.586 8.5-6.153 2.433-2.566 4.332-5.515 5.699-8.847 1.398-3.336 2.098-6.903 2.098-10.699 0-4.036-.848-7.934-2.547-11.704" fill="#3d6830"/><g fill="#000"><path d="m69.605 51.25h4.516v-34.906h-4.516zm34.645-34.906v3.656h-10.984v31.25h-4.516v-31.25h-10.984v-3.656z"/><path d="m121.074 47.594c8.539 0 12.813-4.914 12.813-14.75 0-8.563-4.274-12.844-12.813-12.844h-8.672v27.594zm-13.187 3.656v-34.906h14.172c10.906 0 16.359 5.5 16.359 16.5 0 12.273-5.453 18.406-16.359 18.406z"/><path d="m156.824 50.031v-4.156c3.656 1.305 7.61 1.953 11.86 1.953 6.007 0 9.015-2.195 9.015-6.594 0-3.738-2.215-5.609-6.64-5.609h-4.985c-7.312 0-10.969-3.172-10.969-9.516 0-6.675 4.68-10.015 14.047-10.015 4.063 0 7.844.492 11.344 1.468v4.141c-3.5-1.301-7.281-1.953-11.344-1.953-6.355 0-9.531 2.121-9.531 6.359 0 3.743 2.149 5.61 6.453 5.61h4.985c7.437 0 11.156 3.172 11.156 9.515 0 6.844-4.512 10.266-13.531 10.266-4.25 0-8.204-.488-11.86-1.469z"/><path d="m208.918 39.719h-17.266c0 5.25 3.305 7.875 9.922 7.875 2.258 0 4.52-.242 6.781-.735v3.657c-2.261.492-5.011.734-8.25.734-8.648 0-12.968-4.367-12.968-13.109 0-8.352 4.093-12.532 12.281-12.532 7.844 0 11.008 4.703 9.5 14.11zm-17.266-3.75h13.141c.227-4.489-1.809-6.735-6.109-6.735-4.399 0-6.743 2.246-7.032 6.735z"/><path d="m215.992 51.25v-25.641h3.063l.797 3.282c2.25-2.188 4.953-3.282 8.109-3.282v3.766c-3.063 0-5.547 1.086-7.453 3.25v18.625z"/><path d="m228.84 25.609h4.89l7.344 20.094 7.297-20.094h4.891l-10.438 25.641h-4.187z"/><path d="m256.91 20h4.516v-3.656h-4.516zm0 31.25h4.516v-25.641h-4.516z"/><path d="m288.258 50.516c-2.117.492-4.391.734-6.828.734-9.282 0-13.922-4.438-13.922-13.312 0-8.219 4.64-12.329 13.922-12.329 2.437 0 4.711.246 6.828.735v3.672c-2.117-.489-4.231-.735-6.344-.735-6.594 0-9.891 2.887-9.891 8.657 0 6.437 3.297 9.656 9.891 9.656 2.113 0 4.227-.242 6.344-.735z"/><path d="m314.289 39.719h-17.266c0 5.25 3.305 7.875 9.922 7.875 2.258 0 4.52-.242 6.782-.735v3.657c-2.262.492-5.012.734-8.25.734-8.649 0-12.969-4.367-12.969-13.109 0-8.352 4.094-12.532 12.281-12.532 7.844 0 11.008 4.703 9.5 14.11zm-17.266-3.75h13.141c.227-4.489-1.809-6.735-6.109-6.735-4.399 0-6.743 2.246-7.032 6.735z"/><path d="m321.363 50.031v-3.906c2.852.98 5.817 1.469 8.891 1.469 4.082 0 6.125-1.223 6.125-3.672 0-2.281-1.34-3.422-4.016-3.422h-4.156c-5.375 0-8.062-2.52-8.062-7.562 0-4.883 3.554-7.329 10.671-7.329 3.063 0 6.016.407 8.86 1.219v3.906c-2.844-.968-5.797-1.453-8.86-1.453-4.261 0-6.39 1.219-6.39 3.657 0 2.281 1.258 3.421 3.781 3.421h4.156c5.688 0 8.532 2.524 8.532 7.563 0 4.887-3.547 7.328-10.641 7.328-3.074 0-6.039-.406-8.891-1.219z"/></g></g></svg>